PathFileType	4	(X/Y/Z)	/Users/itak/Documents/Research/Walk-IL/dataset/trc/00272_00010.trc
DataRate	CameraRate	NumFrames	NumMarkers	Units	OrigDataRate	OrigDataStartFrame	OrigNumFrames
100.000000	100.000000	4	53	mm	100.000000	480	640
Frame#	Time	RPSI			LPSI			L3			STRN			T10			C7			CLAV			RBAK			LBAK			LSHO			LUPA			LAEL			LAOL			LWTS			LWPS			LFRA			LIFD			LHPS			LHTS			RSHO			RUPA			RAEL			RAOL			RWTS			RWPS			RFRA			RIFD			RHTS			RHPS			RBHD			LFHD			RFHD			LBHD			LHIP			RHIP			RASI			LASI			LKNE			LTHI			LANK			LTIP			LTOE			LMT1			LMT5			LHEE			RKNE			RTHI			RTIP			RTOE			RMT1			RMT5			RHEE			RANK			
		X1	Y1	Z1	X2	Y2	Z2	X3	Y3	Z3	X4	Y4	Z4	X5	Y5	Z5	X6	Y6	Z6	X7	Y7	Z7	X8	Y8	Z8	X9	Y9	Z9	X10	Y10	Z10	X11	Y11	Z11	X12	Y12	Z12	X13	Y13	Z13	X14	Y14	Z14	X15	Y15	Z15	X16	Y16	Z16	X17	Y17	Z17	X18	Y18	Z18	X19	Y19	Z19	X20	Y20	Z20	X21	Y21	Z21	X22	Y22	Z22	X23	Y23	Z23	X24	Y24	Z24	X25	Y25	Z25	X26	Y26	Z26	X27	Y27	Z27	X28	Y28	Z28	X29	Y29	Z29	X30	Y30	Z30	X31	Y31	Z31	X32	Y32	Z32	X33	Y33	Z33	X34	Y34	Z34	X35	Y35	Z35	X36	Y36	Z36	X37	Y37	Z37	X38	Y38	Z38	X39	Y39	Z39	X40	Y40	Z40	X41	Y41	Z41	X42	Y42	Z42	X43	Y43	Z43	X44	Y44	Z44	X45	Y45	Z45	X46	Y46	Z46	X47	Y47	Z47	X48	Y48	Z48	X49	Y49	Z49	X50	Y50	Z50	X51	Y51	Z51	X52	Y52	Z52	X53	Y53	Z53	

481	4.8	-1153.3828125	1004.862060546875	88.98881530761719	-1142.461181640625	987.0496826171875	-84.02199554443359	-1113.3193359375	1072.496215820312	9.514432907104492	-832.9093627929688	1204.804565429688	7.631256103515625	-1104.957275390625	1182.990966796875	18.37295150756836	-1028.315673828125	1419.568481445312	-1.422761082649231	-878.7308349609375	1314.624389648438	2.978649139404297	-1089.80078125	1290.7529296875	81.52940368652344	-1053.370849609375	1383.138671875	-104.0442733764648	-963.197998046875	1374.272338867188	-158.353515625	-1016.713439941406	1264.726684570312	-227.2355194091797	-1061.19580078125	1069.801513671875	-242.0503692626953	-1125.242065429688	1068.91455078125	-182.8025817871094	-1001.140502929688	850.0126342773438	-211.2742309570312	-1041.405029296875	841.70068359375	-271.6006164550781	-1060.942016601562	969.7354125976562	-255.2125549316406	-1003.913757324219	664.0921020507812	-215.5614318847656	-1040.399780273438	752.5082397460938	-270.9267272949219	-982.8869018554688	752.4100952148438	-237.5287322998047	-952.4446411132812	1390.486572265625	154.387939453125	-958.5665893554688	1335.244750976562	223.6206970214844	-981.1940307617188	1074.945068359375	293.5359497070312	-1030.368896484375	1061.484252929688	211.4933929443359	-847.7316284179688	883.4589233398438	220.8789672851562	-876.9688720703125	865.5213012695312	298.8490600585938	-948.3937377929688	1013.158142089844	301.3789978027344	-787.735107421875	710.1915893554688	205.8659515380859	-784.5477294921875	781.7495727539062	226.9524078369141	-823.6573486328125	764.6771240234375	283.3247680664062	-1014.854919433594	1566.72412109375	62.37476348876953	-846.1068725585938	1611.67822265625	-60.43619537353516	-847.154296875	1612.843872070312	33.18604278564453	-1012.326538085938	1554.77978515625	-84.28804016113281	-1069.98583984375	933.2996215820312	-172.6979217529297	-1067.220581054688	943.509521484375	199.6575775146484	-942.412841796875	932.38916015625	139.3460693359375	-934.0980224609375	933.831298828125	-111.3879547119141	-852.2723999023438	512.244873046875	-170.9977569580078	-918.6365966796875	638.5166015625	-185.6174468994141	-829.8767700195312	56.6697883605957	-188.4760437011719	-842.1019897460938	282.3714294433594	-193.2662811279297	-627.6793212890625	60.92342376708984	-126.2921295166016	-697.2446899414062	47.70094680786133	-88.52013397216797	-707.66748046875	56.79502868652344	-199.9138793945312	-877.846923828125	49.8294792175293	-131.5715789794922	-1093.84912109375	470.9652709960938	158.3980712890625	-1031.466918945312	726.8219604492188	195.9834136962891	-1112.124755859375	346.262939453125	140.4449768066406	-1057.582885742188	56.30215072631836	49.09370803833008	-1116.751831054688	52.76847076416016	14.58076190948486	-1137.910034179688	36.94744873046875	132.2359619140625	-1304.069213867188	45.90521240234375	70.48625946044922	-1245.635864257812	44.52437973022461	115.5357818603516	
482	4.81	-1158.80859375	1006.479797363281	89.46745300292969	-1147.451293945312	987.6950073242188	-83.30246734619141	-1118.591186523438	1073.636352539062	10.05490207672119	-838.06103515625	1206.101928710938	9.183258056640625	-1110.259155273438	1183.626708984375	19.34673500061035	-1033.7587890625	1420.393920898438	0.6340797543525696	-884.0711669921875	1315.831909179688	4.984095096588135	-1095.317260742188	1291.244506835938	82.70771789550781	-1058.747680664062	1384.306884765625	-102.1780548095703	-968.5509643554688	1375.67626953125	-156.3777008056641	-1021.743835449219	1266.101928710938	-225.6222381591797	-1064.402709960938	1071.0224609375	-241.5530700683594	-1128.808837890625	1069.171997070312	-182.7138061523438	-1000.928405761719	852.5685424804688	-211.0627136230469	-1040.486328125	843.65234375	-271.8005065917969	-1062.487182617188	971.0817260742188	-255.1070709228516	-997.3746948242188	666.673095703125	-217.8611907958984	-1036.875854492188	754.5541381835938	-271.9934692382812	-979.4651489257812	755.9679565429688	-238.5003662109375	-958.5960083007812	1390.910766601562	156.6647338867188	-965.4507446289062	1335.675048828125	225.7418823242188	-989.7664184570312	1075.455932617188	295.3121643066406	-1037.300048828125	1061.848510742188	212.3286743164062	-856.9280395507812	881.9991455078125	226.0462951660156	-887.9732055664062	864.6567993164062	303.4342956542969	-957.5819702148438	1013.231750488281	304.0422058105469	-797.8695678710938	708.2882080078125	213.2845611572266	-794.7582397460938	779.8416137695312	234.1134796142578	-835.29931640625	763.3917846679688	289.6194458007812	-1019.206665039062	1568.150390625	64.74887847900391	-850.2587890625	1612.039672851562	-58.10630035400391	-851.3076171875	1613.32373046875	35.52209091186523	-1016.823547363281	1556.12109375	-81.94058990478516	-1074.714599609375	933.9024047851562	-172.0325927734375	-1072.4111328125	945.5462646484375	200.3614196777344	-947.83251953125	934.4505004882812	140.530517578125	-939.1820678710938	934.4114379882812	-110.1014099121094	-854.7811889648438	514.2269897460938	-170.4438934326172	-922.2590942382812	640.0473022460938	-184.7810974121094	-836.763427734375	57.98322296142578	-188.2298126220703	-846.656005859375	284.0784912109375	-192.8524932861328	-634.7412719726562	63.01020812988281	-125.7413482666016	-704.162841796875	49.15920257568359	-88.07085418701172	-714.5728149414062	58.53331756591797	-199.3914184570312	-884.7198486328125	50.93257904052734	-131.3659210205078	-1096.452270507812	472.1574401855469	160.2121887207031	-1036.009521484375	728.64208984375	197.7591705322266	-1113.833862304688	347.4321594238281	141.812744140625	-1057.713623046875	56.95329284667969	49.60994720458984	-1116.924926757812	53.50514984130859	15.1928539276123	-1137.88427734375	36.66534423828125	132.6989135742188	-1304.171264648438	45.95499038696289	71.11174011230469	-1245.596801757812	44.20944213867188	116.1184234619141	
483	4.82	-1164.029663085938	1008.049255371094	89.84261322021484	-1152.113891601562	988.5187377929688	-82.67568969726562	-1123.690673828125	1074.881591796875	10.49957847595215	-843.0145263671875	1207.723266601562	10.61153125762939	-1115.334838867188	1184.465698242188	20.16845703125	-1039.139526367188	1421.379516601562	2.574757814407349	-889.2852172851562	1317.334838867188	6.882440567016602	-1100.717651367188	1291.918579101562	83.77474975585938	-1064.005126953125	1385.716796875	-100.4154434204102	-973.7659301757812	1377.452514648438	-154.4939575195312	-1026.541015625	1267.909301757812	-224.1857757568359	-1067.422729492188	1072.738525390625	-241.1373901367188	-1132.07373046875	1069.877563476562	-182.6317138671875	-1000.666198730469	855.466796875	-211.2195739746094	-1039.788940429688	846.0261840820312	-272.2128295898438	-1064.023681640625	972.8790893554688	-255.169677734375	-991.4267578125	669.6517333984375	-220.3884582519531	-1033.808227539062	757.0880126953125	-273.2332458496094	-976.4609985351562	759.8190307617188	-239.797607421875	-964.6097412109375	1391.542724609375	158.7633361816406	-972.1005249023438	1336.285888671875	227.6557312011719	-998.1487426757812	1076.215087890625	296.8306884765625	-1043.969360351562	1062.490478515625	212.8802337646484	-866.2340087890625	880.4851684570312	231.3358612060547	-899.3294677734375	863.8583984375	308.0112915039062	-966.725830078125	1013.473754882812	306.5426330566406	-808.7654418945312	706.1090698242188	221.0540771484375	-805.4365234375	777.7279052734375	241.5933990478516	-847.576416015625	762.0751953125	296.1179809570312	-1023.538818359375	1569.708251953125	67.0611572265625	-854.3998413085938	1612.583984375	-55.83400344848633	-855.4380493164062	1613.935180664062	37.80792617797852	-1021.315856933594	1557.674438476562	-79.66664886474609	-1079.091674804688	934.8185424804688	-171.3355102539062	-1077.546997070312	947.5697631835938	201.0814666748047	-953.0243530273438	936.6659545898438	141.7208404541016	-943.9420776367188	935.3292236328125	-108.7850875854492	-857.5324096679688	516.1280517578125	-169.7816772460938	-925.8832397460938	641.576904296875	-183.8861999511719	-844.6452026367188	59.25398635864258	-187.6895751953125	-851.9667358398438	285.6920776367188	-192.2283172607422	-642.6362915039062	64.98178863525391	-125.3197937011719	-711.7991333007812	50.52946090698242	-87.61317443847656	-722.4478149414062	60.26217269897461	-198.8171691894531	-892.4678955078125	51.96060180664062	-130.7754821777344	-1098.89208984375	473.2459716796875	161.925048828125	-1040.4501953125	730.3705444335938	199.4318237304688	-1115.406860351562	348.4795837402344	143.0153656005859	-1057.7880859375	57.48549270629883	50.06974029541016	-1117.026489257812	54.12850952148438	15.73378753662109	-1137.835205078125	36.4283332824707	133.0737152099609	-1304.232666015625	46.08254623413086	71.63880157470703	-1245.536499023438	43.97231674194336	116.6049957275391	
484	4.83	-1169.05908203125	1009.449829101562	90.22605133056641	-1156.507568359375	989.4880981445312	-82.05859375	-1128.620483398438	1076.1435546875	10.92074298858643	-847.8139038085938	1209.590087890625	11.96587181091309	-1120.20751953125	1185.454467773438	20.85551834106445	-1044.4541015625	1422.483520507812	4.377385139465332	-894.3971557617188	1319.0634765625	8.693870544433594	-1106.047119140625	1292.735595703125	84.74063873291016	-1069.112548828125	1387.31005859375	-98.779296875	-978.7991333007812	1379.53076171875	-152.7032623291016	-1031.034790039062	1270.078491210938	-222.9402313232422	-1070.251708984375	1074.869262695312	-240.8307189941406	-1135.048461914062	1070.986206054688	-182.5872039794922	-1000.312194824219	858.6270141601562	-211.7313690185547	-1039.247436523438	848.7479858398438	-272.8316955566406	-1065.518798828125	975.0682983398438	-255.3954772949219	-986.2398071289062	672.931396484375	-223.0129089355469	-1031.197875976562	760.0119018554688	-274.6169738769531	-973.8690185546875	763.8338012695312	-241.3578033447266	-970.5009765625	1392.335693359375	160.6772003173828	-978.5147094726562	1337.023559570312	229.3578338623047	-1006.282592773438	1077.174194335938	298.1199645996094	-1050.381103515625	1063.363403320312	213.2174224853516	-875.6359252929688	878.912353515625	236.7245941162109	-910.9876708984375	863.1303100585938	312.5587158203125	-975.7587890625	1013.859130859375	308.88232421875	-820.4717407226562	703.646484375	229.0930328369141	-816.5922241210938	775.40625	249.3147430419922	-860.4588623046875	760.7274780273438	302.7525024414062	-1027.864624023438	1571.3369140625	69.29833984375	-858.5355224609375	1613.274536132812	-53.62125396728516	-859.5564575195312	1614.629760742188	40.04055404663086	-1025.79931640625	1559.393676757812	-77.47634124755859	-1083.156005859375	936.0269165039062	-170.5810699462891	-1082.695190429688	949.447509765625	201.9332580566406	-958.0023193359375	938.8724365234375	142.9444885253906	-948.4142456054688	936.5728149414062	-107.4177322387695	-860.5682983398438	517.899658203125	-169.0127563476562	-929.537109375	643.0904541015625	-182.9142913818359	-853.4612426757812	60.4555778503418	-186.8760986328125	-857.9967651367188	287.1864929199219	-191.4128112792969	-651.310546875	66.76840209960938	-125.0589904785156	-720.116943359375	51.77316284179688	-87.16409301757812	-731.2542724609375	61.89051818847656	-198.2181243896484	-901.042236328125	52.93302536010742	-129.8251190185547	-1101.242919921875	474.1814880371094	163.4093322753906	-1044.822387695312	731.9137573242188	200.9564361572266	-1116.908569335938	349.366455078125	143.9599914550781	-1057.7978515625	57.82863616943359	50.4093132019043	-1117.045166015625	54.54724502563477	16.12467002868652	-1137.772827148438	36.25344848632812	133.3126068115234	-1304.235595703125	46.24031829833984	71.97886657714844	-1245.470336914062	43.85055923461914	116.9263381958008	
